<svg xmlns="http://www.w3.org/2000/svg" xmlns:xlink="http://www.w3.org/1999/xlink" width="880" zoomAndPan="magnify" viewBox="0 0 660 270.749989" height="361" preserveAspectRatio="xMidYMid meet" version="1.2"><defs><clipPath id="ad49982dcb"><path d="M 0.304688 40 L 229.59375 40 L 229.59375 236.03125 L 0.304688 236.03125 Z M 0.304688 40 "/></clipPath></defs><g id="378584a64b"><g clip-rule="nonzero" clip-path="url(#ad49982dcb)"><path style=" stroke:none;fill-rule:evenodd;fill:#ffffff;fill-opacity:1;" d="M 0.304688 40.445312 L 134.238281 236.011719 L 226.632812 147.679688 L 229.269531 108.453125 L 132.808594 168.882812 Z M 0.304688 40.445312 "/></g><path style=" stroke:none;fill-rule:evenodd;fill:#ffffff;fill-opacity:1;" d="M 123.574219 129.769531 L 183.894531 91.53125 L 187.191406 53.082031 L 95.230469 102.304688 Z M 123.574219 129.769531 "/><path style=" stroke:none;fill-rule:evenodd;fill:#ffffff;fill-opacity:1;" d="M 72.480469 79.234375 L 143.023438 37.589844 L 146.871094 0.015625 L 46.78125 54.398438 Z M 72.480469 79.234375 "/><g style="fill:#ffffff;fill-opacity:1;"><g transform="translate(229.454628, 204.590083)"><path style="stroke:none" d="M 45.71875 -68.59375 C 47.164062 -68.59375 48.28125 -68.367188 49.0625 -67.921875 C 49.851562 -67.472656 50.25 -66.835938 50.25 -66.015625 C 50.25 -65.671875 50.148438 -65.222656 49.953125 -64.671875 C 49.742188 -64.191406 49.445312 -63.765625 49.0625 -63.390625 C 48.6875 -63.015625 48.34375 -62.738281 48.03125 -62.5625 C 47.726562 -62.394531 47.507812 -62.238281 47.375 -62.09375 C 46.269531 -61.476562 45.375 -60.789062 44.6875 -60.03125 C 44.007812 -59.28125 43.425781 -58.113281 42.9375 -56.53125 L 30.484375 -12.15625 C 30.210938 -11.257812 30.078125 -10.398438 30.078125 -9.578125 C 30.078125 -8.753906 30.195312 -8.066406 30.4375 -7.515625 C 30.675781 -6.960938 31.035156 -6.378906 31.515625 -5.765625 C 32.128906 -4.867188 32.4375 -4.148438 32.4375 -3.609375 C 32.4375 -3.472656 32.367188 -3.128906 32.234375 -2.578125 C 31.960938 -1.617188 31.34375 -0.945312 30.375 -0.5625 C 29.414062 -0.1875 27.976562 0 26.0625 0 L 1.859375 0 C 0.410156 0 -0.703125 -0.238281 -1.484375 -0.71875 C -2.273438 -1.195312 -2.671875 -1.847656 -2.671875 -2.671875 C -2.671875 -3.085938 -2.570312 -3.535156 -2.375 -4.015625 C -2.09375 -4.773438 -1.644531 -5.359375 -1.03125 -5.765625 C -0.414062 -6.179688 -0.0351562 -6.421875 0.109375 -6.484375 C 1.203125 -7.171875 2.09375 -7.875 2.78125 -8.59375 C 3.46875 -9.320312 4.050781 -10.507812 4.53125 -12.15625 L 17.09375 -56.53125 C 17.363281 -57.425781 17.5 -58.285156 17.5 -59.109375 C 17.5 -59.867188 17.378906 -60.503906 17.140625 -61.015625 C 16.898438 -61.535156 16.578125 -62.140625 16.171875 -62.828125 C 15.546875 -63.710938 15.234375 -64.429688 15.234375 -64.984375 C 15.234375 -65.191406 15.304688 -65.566406 15.453125 -66.109375 C 15.722656 -67.003906 16.320312 -67.640625 17.25 -68.015625 C 18.175781 -68.398438 19.601562 -68.59375 21.53125 -68.59375 Z M 45.71875 -68.59375 "/></g></g><g style="fill:#ffffff;fill-opacity:1;"><g transform="translate(271.052974, 204.590083)"><path style="stroke:none" d="M 63.75 -14.21875 C 63.613281 -13.9375 63.546875 -13.519531 63.546875 -12.96875 C 63.546875 -12.488281 63.664062 -12.113281 63.90625 -11.84375 C 64.144531 -11.570312 64.46875 -11.4375 64.875 -11.4375 C 65.695312 -11.4375 66.398438 -11.796875 66.984375 -12.515625 C 67.566406 -13.234375 67.960938 -13.59375 68.171875 -13.59375 C 68.515625 -13.59375 68.789062 -13.367188 69 -12.921875 C 69.207031 -12.472656 69.3125 -11.941406 69.3125 -11.328125 C 69.375 -9.335938 68.71875 -7.394531 67.34375 -5.5 C 65.976562 -3.613281 63.972656 -2.070312 61.328125 -0.875 C 58.679688 0.320312 55.503906 0.921875 51.796875 0.921875 C 47.265625 0.921875 43.660156 -0.125 40.984375 -2.21875 C 38.304688 -4.3125 36.9375 -7.109375 36.875 -10.609375 C 36.875 -13.148438 37.488281 -16 38.71875 -19.15625 L 44.390625 -33.984375 C 44.734375 -34.878906 44.90625 -35.597656 44.90625 -36.140625 C 44.90625 -37.035156 44.613281 -37.738281 44.03125 -38.25 C 43.445312 -38.769531 42.742188 -39.03125 41.921875 -39.03125 C 40.410156 -39.03125 38.96875 -38.328125 37.59375 -36.921875 C 36.21875 -35.515625 35.222656 -33.78125 34.609375 -31.71875 L 28.21875 -10.703125 C 27.945312 -9.953125 27.8125 -9.234375 27.8125 -8.546875 C 27.8125 -7.722656 27.976562 -7.050781 28.3125 -6.53125 C 28.65625 -6.019531 29.140625 -5.488281 29.765625 -4.9375 C 30.242188 -4.53125 30.582031 -4.15625 30.78125 -3.8125 C 30.988281 -3.46875 31.023438 -3.054688 30.890625 -2.578125 C 30.617188 -1.679688 29.96875 -1.023438 28.9375 -0.609375 C 27.90625 -0.203125 26.289062 0 24.09375 0 L 0.625 0 C -1.164062 0 -2.453125 -0.289062 -3.234375 -0.875 C -4.023438 -1.457031 -4.320312 -2.226562 -4.125 -3.1875 C -3.84375 -4.007812 -3.117188 -4.734375 -1.953125 -5.359375 C -0.921875 -5.898438 -0.0664062 -6.546875 0.609375 -7.296875 C 1.296875 -8.054688 1.882812 -9.265625 2.375 -10.921875 L 11.53125 -40.671875 C 11.664062 -41.015625 11.734375 -41.5 11.734375 -42.125 C 11.734375 -42.875 11.578125 -43.453125 11.265625 -43.859375 C 10.960938 -44.273438 10.46875 -44.796875 9.78125 -45.421875 C 9.09375 -45.960938 8.613281 -46.4375 8.34375 -46.84375 C 8.070312 -47.257812 8.035156 -47.8125 8.234375 -48.5 C 8.648438 -50.082031 10.8125 -51.472656 14.71875 -52.671875 C 18.632812 -53.878906 22.722656 -54.484375 26.984375 -54.484375 C 30.410156 -54.484375 33.117188 -53.535156 35.109375 -51.640625 C 37.109375 -49.753906 38.003906 -47.128906 37.796875 -43.765625 C 40.609375 -47.816406 43.59375 -50.613281 46.75 -52.15625 C 49.914062 -53.707031 53.347656 -54.484375 57.046875 -54.484375 C 61.234375 -54.484375 64.613281 -53.210938 67.1875 -50.671875 C 69.769531 -48.128906 71.0625 -44.832031 71.0625 -40.78125 C 71.0625 -38.65625 70.71875 -36.5625 70.03125 -34.5 Z M 63.75 -14.21875 "/></g></g><g style="fill:#ffffff;fill-opacity:1;"><g transform="translate(344.776799, 204.590083)"><path style="stroke:none" d="M 50.25 -54.484375 C 53.894531 -54.484375 56.914062 -53.175781 59.3125 -50.5625 C 61.71875 -47.957031 62.921875 -44.390625 62.921875 -39.859375 C 62.921875 -33.742188 60.789062 -27.492188 56.53125 -21.109375 C 52.28125 -14.722656 46.894531 -9.453125 40.375 -5.296875 C 33.851562 -1.148438 27.5 0.921875 21.3125 0.921875 C 15.414062 0.921875 10.628906 -0.273438 6.953125 -2.671875 C 3.273438 -5.078125 1.4375 -8.507812 1.4375 -12.96875 C 1.4375 -14.625 1.75 -16.476562 2.375 -18.53125 L 8.859375 -40.671875 C 8.992188 -41.222656 9.0625 -41.640625 9.0625 -41.921875 C 9.0625 -42.597656 8.890625 -43.175781 8.546875 -43.65625 C 8.203125 -44.144531 7.722656 -44.660156 7.109375 -45.203125 C 6.078125 -46.097656 5.5625 -46.890625 5.5625 -47.578125 C 5.488281 -48.535156 6.070312 -49.5625 7.3125 -50.65625 C 8.550781 -51.757812 10.285156 -52.671875 12.515625 -53.390625 C 14.742188 -54.117188 17.265625 -54.484375 20.078125 -54.484375 C 24.679688 -54.484375 28.269531 -53.363281 30.84375 -51.125 C 33.414062 -48.894531 34.703125 -45.992188 34.703125 -42.421875 C 34.703125 -40.847656 34.425781 -39.132812 33.875 -37.28125 L 27.1875 -15.234375 C 26.976562 -14.617188 26.875 -14.109375 26.875 -13.703125 C 26.875 -12.804688 27.179688 -12.117188 27.796875 -11.640625 C 28.421875 -11.160156 29.28125 -10.921875 30.375 -10.921875 C 31.882812 -10.921875 33.648438 -11.585938 35.671875 -12.921875 C 37.703125 -14.265625 39.710938 -16.1875 41.703125 -18.6875 C 43.691406 -21.195312 45.304688 -24.164062 46.546875 -27.59375 C 43.796875 -30 41.851562 -32.367188 40.71875 -34.703125 C 39.59375 -37.035156 39.03125 -39.441406 39.03125 -41.921875 C 39.03125 -45.421875 39.988281 -48.390625 41.90625 -50.828125 C 43.832031 -53.265625 46.613281 -54.484375 50.25 -54.484375 Z M 50.25 -54.484375 "/></g></g><g style="fill:#ffffff;fill-opacity:1;"><g transform="translate(406.453572, 204.590083)"><path style="stroke:none" d="M 39.859375 -54.484375 C 49.191406 -54.484375 56.070312 -52.59375 60.5 -48.8125 C 64.925781 -45.039062 67.140625 -40.097656 67.140625 -33.984375 C 67.140625 -31.921875 66.867188 -29.617188 66.328125 -27.078125 C 65.015625 -21.453125 62.570312 -16.523438 59 -12.296875 C 55.4375 -8.078125 51.0625 -4.816406 45.875 -2.515625 C 40.695312 -0.222656 35.085938 0.921875 29.046875 0.921875 C 19.503906 0.921875 12.445312 -0.976562 7.875 -4.78125 C 3.3125 -8.59375 1.03125 -13.660156 1.03125 -19.984375 C 1.03125 -22.109375 1.304688 -24.472656 1.859375 -27.078125 C 3.160156 -32.441406 5.644531 -37.195312 9.3125 -41.34375 C 12.988281 -45.5 17.488281 -48.726562 22.8125 -51.03125 C 28.132812 -53.332031 33.816406 -54.484375 39.859375 -54.484375 Z M 39.546875 -45.3125 C 38.109375 -45.3125 36.582031 -44.023438 34.96875 -41.453125 C 33.351562 -38.878906 31.445312 -34.019531 29.25 -26.875 C 27.050781 -19.738281 25.953125 -14.726562 25.953125 -11.84375 C 25.953125 -10.332031 26.191406 -9.316406 26.671875 -8.796875 C 27.148438 -8.285156 27.800781 -8.03125 28.625 -8.03125 C 30.070312 -7.894531 31.566406 -9.128906 33.109375 -11.734375 C 34.648438 -14.347656 36.585938 -19.429688 38.921875 -26.984375 C 41.054688 -33.640625 42.125 -38.476562 42.125 -41.5 C 42.125 -42.945312 41.898438 -43.941406 41.453125 -44.484375 C 41.003906 -45.035156 40.367188 -45.3125 39.546875 -45.3125 Z M 39.546875 -45.3125 "/></g></g><g style="fill:#ffffff;fill-opacity:1;"><g transform="translate(473.999425, 204.590083)"><path style="stroke:none" d="M 27.09375 -54.484375 C 31.070312 -54.484375 33.988281 -53.726562 35.84375 -52.21875 C 37.695312 -50.707031 38.625 -48.644531 38.625 -46.03125 C 38.625 -44.457031 38.382812 -42.945312 37.90625 -41.5 L 28.421875 -10.703125 C 28.222656 -9.878906 28.125 -9.160156 28.125 -8.546875 C 28.125 -7.648438 28.289062 -6.945312 28.625 -6.4375 C 28.96875 -5.925781 29.453125 -5.425781 30.078125 -4.9375 C 30.554688 -4.457031 30.894531 -4.0625 31.09375 -3.75 C 31.300781 -3.445312 31.335938 -3.054688 31.203125 -2.578125 C 30.859375 -1.679688 30.171875 -1.023438 29.140625 -0.609375 C 28.117188 -0.203125 26.539062 0 24.40625 0 L 0.9375 0 C -0.851562 0 -2.160156 -0.289062 -2.984375 -0.875 C -3.804688 -1.457031 -4.082031 -2.226562 -3.8125 -3.1875 C -3.53125 -4.007812 -2.804688 -4.734375 -1.640625 -5.359375 C -0.609375 -5.898438 0.242188 -6.546875 0.921875 -7.296875 C 1.609375 -8.054688 2.195312 -9.265625 2.6875 -10.921875 L 11.640625 -40.671875 C 11.847656 -41.296875 11.953125 -41.8125 11.953125 -42.21875 C 11.953125 -42.976562 11.78125 -43.578125 11.4375 -44.015625 C 11.09375 -44.460938 10.578125 -44.929688 9.890625 -45.421875 C 9.203125 -45.960938 8.71875 -46.4375 8.4375 -46.84375 C 8.164062 -47.257812 8.132812 -47.8125 8.34375 -48.5 C 8.757812 -50.082031 10.921875 -51.472656 14.828125 -52.671875 C 18.742188 -53.878906 22.832031 -54.484375 27.09375 -54.484375 Z M 33.984375 -77.234375 C 36.660156 -77.234375 38.890625 -76.359375 40.671875 -74.609375 C 42.460938 -72.859375 43.359375 -70.710938 43.359375 -68.171875 C 43.359375 -66.390625 42.894531 -64.640625 41.96875 -62.921875 C 41.039062 -61.203125 39.734375 -59.8125 38.046875 -58.75 C 36.367188 -57.6875 34.5 -57.15625 32.4375 -57.15625 C 29.832031 -57.15625 27.65625 -58.03125 25.90625 -59.78125 C 24.15625 -61.53125 23.242188 -63.710938 23.171875 -66.328125 C 23.171875 -68.035156 23.613281 -69.726562 24.5 -71.40625 C 25.394531 -73.09375 26.664062 -74.484375 28.3125 -75.578125 C 29.96875 -76.679688 31.859375 -77.234375 33.984375 -77.234375 Z M 33.984375 -77.234375 "/></g></g><g style="fill:#ffffff;fill-opacity:1;"><g transform="translate(511.685073, 204.590083)"><path style="stroke:none" d="M 37.390625 -55 C 41.578125 -55 45.25 -54.394531 48.40625 -53.1875 C 51.5625 -51.988281 54.015625 -50.34375 55.765625 -48.25 C 57.515625 -46.15625 58.390625 -43.835938 58.390625 -41.296875 C 58.390625 -38.546875 57.445312 -36.28125 55.5625 -34.5 C 53.675781 -32.71875 51.117188 -31.828125 47.890625 -31.828125 C 44.585938 -31.828125 42.007812 -32.664062 40.15625 -34.34375 C 38.3125 -36.03125 37.390625 -38.3125 37.390625 -41.1875 C 37.390625 -42.5625 37.59375 -44.003906 38 -45.515625 C 35.113281 -44.765625 32.554688 -43.269531 30.328125 -41.03125 C 28.097656 -38.800781 26.601562 -35.867188 25.84375 -32.234375 C 25.4375 -30.171875 25.234375 -28.316406 25.234375 -26.671875 C 25.234375 -22.960938 26.257812 -20.144531 28.3125 -18.21875 C 30.375 -16.300781 33.328125 -15.34375 37.171875 -15.34375 C 39.367188 -15.34375 41.253906 -15.566406 42.828125 -16.015625 C 44.410156 -16.460938 46.03125 -17.0625 47.6875 -17.8125 C 49.050781 -18.5 50.046875 -18.84375 50.671875 -18.84375 C 51.078125 -18.84375 51.347656 -18.753906 51.484375 -18.578125 C 51.628906 -18.410156 51.703125 -18.050781 51.703125 -17.5 C 51.765625 -14.96875 50.710938 -12.3125 48.546875 -9.53125 C 46.390625 -6.75 43.40625 -4.410156 39.59375 -2.515625 C 35.78125 -0.628906 31.507812 0.3125 26.78125 0.3125 C 21.832031 0.3125 17.453125 -0.597656 13.640625 -2.421875 C 9.835938 -4.242188 6.882812 -6.851562 4.78125 -10.25 C 2.6875 -13.644531 1.640625 -17.609375 1.640625 -22.140625 C 1.640625 -24.265625 1.914062 -26.632812 2.46875 -29.25 C 4.320312 -37.757812 8.421875 -44.175781 14.765625 -48.5 C 21.117188 -52.832031 28.660156 -55 37.390625 -55 Z M 37.390625 -55 "/></g></g><g style="fill:#ffffff;fill-opacity:1;"><g transform="translate(567.492765, 204.590083)"><path style="stroke:none" d="M 34.90625 -55 C 43.625 -55 49.941406 -53.609375 53.859375 -50.828125 C 57.773438 -48.046875 59.734375 -44.488281 59.734375 -40.15625 C 59.734375 -38.851562 59.59375 -37.65625 59.3125 -36.5625 C 58.289062 -32.03125 55.425781 -28.785156 50.71875 -26.828125 C 46.019531 -24.867188 40.476562 -23.890625 34.09375 -23.890625 C 30.863281 -23.890625 27.84375 -24.097656 25.03125 -24.515625 C 24.957031 -20.941406 25.914062 -18.429688 27.90625 -16.984375 C 29.894531 -15.546875 32.675781 -14.828125 36.25 -14.828125 C 37.894531 -14.828125 39.472656 -15.015625 40.984375 -15.390625 C 42.492188 -15.773438 44.414062 -16.34375 46.75 -17.09375 C 48.675781 -17.78125 49.984375 -18.125 50.671875 -18.125 C 51.421875 -18.125 51.796875 -17.675781 51.796875 -16.78125 C 51.867188 -14.382812 50.976562 -11.863281 49.125 -9.21875 C 47.269531 -6.570312 44.519531 -4.320312 40.875 -2.46875 C 37.238281 -0.613281 32.847656 0.3125 27.703125 0.3125 C 20.078125 0.3125 13.828125 -1.609375 8.953125 -5.453125 C 4.078125 -9.296875 1.640625 -14.894531 1.640625 -22.25 C 1.640625 -24.300781 1.914062 -26.703125 2.46875 -29.453125 C 4.1875 -37.898438 7.945312 -44.269531 13.75 -48.5625 C 19.550781 -52.851562 26.601562 -55 34.90625 -55 Z M 25.75 -30.6875 C 26.019531 -30.625 26.394531 -30.59375 26.875 -30.59375 C 29.757812 -30.59375 31.957031 -31.929688 33.46875 -34.609375 C 34.976562 -37.285156 35.695312 -40.269531 35.625 -43.5625 C 35.5625 -45.488281 35.015625 -46.453125 33.984375 -46.453125 C 33.234375 -46.453125 32.34375 -45.847656 31.3125 -44.640625 C 30.28125 -43.441406 29.265625 -41.640625 28.265625 -39.234375 C 27.273438 -36.828125 26.4375 -33.976562 25.75 -30.6875 Z M 25.75 -30.6875 "/></g></g></g></svg>