<svg xmlns="http://www.w3.org/2000/svg" xmlns:xlink="http://www.w3.org/1999/xlink" width="921" zoomAndPan="magnify" viewBox="0 0 690.75 591.750004" height="789" preserveAspectRatio="xMidYMid meet" version="1.2"><defs><clipPath id="d20ed1f074"><path d="M 0.0195312 0 L 690 0 L 690 591.171875 L 0.0195312 591.171875 Z M 0.0195312 0 "/></clipPath><clipPath id="27adb9d31a"><path d="M 35.257812 0 L 654.695312 0 C 674.15625 0 689.933594 15.773438 689.933594 35.234375 L 689.933594 555.9375 C 689.933594 575.394531 674.15625 591.171875 654.695312 591.171875 L 35.257812 591.171875 C 15.796875 591.171875 0.0195312 575.394531 0.0195312 555.9375 L 0.0195312 35.234375 C 0.0195312 15.773438 15.796875 0 35.257812 0 Z M 35.257812 0 "/></clipPath><clipPath id="3b6780a0ae"><path d="M 56.457031 119 L 576.738281 119 L 576.738281 563.535156 L 56.457031 563.535156 Z M 56.457031 119 "/></clipPath><clipPath id="5f666a48c6"><path d="M 162 27.511719 L 390 27.511719 L 390 208 L 162 208 Z M 162 27.511719 "/></clipPath></defs><g id="d97b352a7e"><g clip-rule="nonzero" clip-path="url(#d20ed1f074)"><g clip-rule="nonzero" clip-path="url(#27adb9d31a)"><path style=" stroke:none;fill-rule:nonzero;fill:#292974;fill-opacity:1;" d="M 0.0195312 0 L 690.492188 0 L 690.492188 591.171875 L 0.0195312 591.171875 Z M 0.0195312 0 "/></g></g><g clip-rule="nonzero" clip-path="url(#3b6780a0ae)"><path style=" stroke:none;fill-rule:evenodd;fill:#ffffff;fill-opacity:1;" d="M 56.457031 119.363281 L 360.609375 563.484375 L 570.4375 362.890625 L 576.429688 273.804688 L 357.367188 411.039062 Z M 56.457031 119.363281 "/></g><path style=" stroke:none;fill-rule:evenodd;fill:#ffffff;fill-opacity:1;" d="M 336.398438 322.21875 L 473.378906 235.378906 L 480.867188 148.054688 L 272.023438 259.84375 Z M 336.398438 322.21875 "/><g clip-rule="nonzero" clip-path="url(#5f666a48c6)"><path style=" stroke:none;fill-rule:evenodd;fill:#ffffff;fill-opacity:1;" d="M 220.367188 207.449219 L 380.566406 112.875 L 389.300781 27.546875 L 162 151.050781 Z M 220.367188 207.449219 "/></g></g></svg>